name C:\Users\r0593348\3dpredictsim\Results\MidTarsalJoint\Fal_s1_bCst_PF_Natali2010_ls150_MT_k200_MTP_T5_ig21.mot
datacolumns 128
datarows 4
range 0.00000000 0.03421598
endheader
time	pelvis_tilt	pelvis_list	pelvis_rotation	pelvis_tx	pelvis_ty	pelvis_tz	hip_flexion_l	hip_adduction_l	hip_rotation_l	hip_flexion_r	hip_adduction_r	hip_rotation_r	knee_angle_l	knee_angle_r	ankle_angle_l	ankle_angle_r	subtalar_angle_l	subtalar_angle_r	mtj_angle_l	mtj_angle_r	mtp_angle_l	mtp_angle_r	lumbar_extension	lumbar_bending	lumbar_rotation	arm_flex_l	arm_add_l	arm_rot_l	arm_flex_r	arm_add_r	arm_rot_r	elbow_flex_l	elbow_flex_r	pro_sup_l	pro_sup_r	glut_med1_l/activation	glut_med2_l/activation	glut_med3_l/activation	glut_min1_l/activation	glut_min2_l/activation	glut_min3_l/activation	semimem_l/activation	semiten_l/activation	bifemlh_l/activation	bifemsh_l/activation	sar_l/activation	add_long_l/activation	add_brev_l/activation	add_mag1_l/activation	add_mag2_l/activation	add_mag3_l/activation	tfl_l/activation	pect_l/activation	grac_l/activation	glut_max1_l/activation	glut_max2_l/activation	glut_max3_l/activation	iliacus_l/activation	psoas_l/activation	quad_fem_l/activation	gem_l/activation	peri_l/activation	rect_fem_l/activation	vas_med_l/activation	vas_int_l/activation	vas_lat_l/activation	med_gas_l/activation	lat_gas_l/activation	soleus_l/activation	tib_post_l/activation	flex_dig_l/activation	flex_hal_l/activation	tib_ant_l/activation	per_brev_l/activation	per_long_l/activation	per_tert_l/activation	ext_dig_l/activation	ext_hal_l/activation	ercspn_l/activation	intobl_l/activation	extobl_l/activation	glut_med1_r/activation	glut_med2_r/activation	glut_med3_r/activation	glut_min1_r/activation	glut_min2_r/activation	glut_min3_r/activation	semimem_r/activation	semiten_r/activation	bifemlh_r/activation	bifemsh_r/activation	sar_r/activation	add_long_r/activation	add_brev_r/activation	add_mag1_r/activation	add_mag2_r/activation	add_mag3_r/activation	tfl_r/activation	pect_r/activation	grac_r/activation	glut_max1_r/activation	glut_max2_r/activation	glut_max3_r/activation	iliacus_r/activation	psoas_r/activation	quad_fem_r/activation	gem_r/activation	peri_r/activation	rect_fem_r/activation	vas_med_r/activation	vas_int_r/activation	vas_lat_r/activation	med_gas_r/activation	lat_gas_r/activation	soleus_r/activation	tib_post_r/activation	flex_dig_r/activation	flex_hal_r/activation	tib_ant_r/activation	per_brev_r/activation	per_long_r/activation	per_tert_r/activation	ext_dig_r/activation	ext_hal_r/activation	ercspn_r/activation	intobl_r/activation	extobl_r/activation	
          0.00000000	         -2.93013400	         -2.23514992	          5.57531711	          0.00000000	          0.91846405	         -0.00158699	        -16.49683624	         -1.23512599	          6.78911134	         28.87550276	          3.72470664	         -2.00401722	         -9.60568227	        -10.77557167	         -3.11632893	          4.96518423	          8.71200677	         -5.39528870	          5.69493075	         -0.25594913	         10.73120344	          0.86431907	         -1.73542264	          0.40581312	         -2.15814688	          4.85057500	        -13.45532200	         16.43076892	         -6.17076395	        -13.45220759	          5.81078618	         34.99735617	         16.88990274	         86.51662706	         86.51662706	          0.27281846	          0.08745637	          0.06533820	          0.26624971	          0.17853952	          0.10018944	          0.05000247	          0.05000047	          0.05000059	          0.05000030	          0.09631702	          0.08128690	          0.06719466	          0.05000994	          0.05000635	          0.05000896	          0.27981156	          0.05929187	          0.05000401	          0.05000210	          0.05000124	          0.05000153	          0.35646196	          0.54876126	          0.05000048	          0.05000595	          0.05950437	          0.21937588	          0.05000157	          0.10147505	          0.12937862	          0.25983198	          0.35428368	          0.32791248	          0.24651603	          0.22124607	          0.29383867	          0.05000005	          0.05000051	          0.11713885	          0.05000021	          0.05000005	          0.05000025	          0.05000003	          0.07353457	          0.05595572	          0.07128811	          0.05000113	          0.05000011	          0.05950483	          0.05950445	          0.05000053	          0.18713259	          0.05000029	          0.06820503	          0.05000016	          0.05000062	          0.11936342	          0.24985728	          0.22718796	          0.15966662	          0.09589697	          0.05000023	          0.07082195	          0.10178298	          0.05000099	          0.05393618	          0.10730447	          0.07081458	          0.06367371	          0.54445580	          0.17464722	          0.13939785	          0.08427645	          0.18449795	          0.18278572	          0.15798269	          0.05000001	          0.05000004	          0.05000000	          0.05000006	          0.05000084	          0.05000054	          0.51165589	          0.24584343	          0.17778962	          0.19785172	          0.47315844	          0.05950489	          0.05000004	          0.11784304	          0.10029687	
          0.01140533	         -2.92792532	         -2.32261741	          5.83729575	          0.01736616	          0.91760608	         -0.00141235	        -16.45890467	         -1.54762922	          6.59638225	         28.17178568	          4.02655918	         -1.74840805	        -11.33643195	        -11.21679014	         -3.65052984	          4.28345612	          9.71175920	         -5.78718278	          4.50969717	         -0.43501182	         12.74168890	          0.86021401	         -1.52329661	          0.60998562	         -2.22270304	          4.53997085	        -13.45889422	         16.73983957	         -7.08061901	        -13.44997321	          5.63061772	         36.12396709	         16.53417792	         86.51662706	         86.51662706	          0.32485549	          0.07348729	          0.05490201	          0.22372271	          0.15002208	          0.08418658	          0.05000319	          0.05000099	          0.05000059	          0.05000018	          0.08093283	          0.11239314	          0.05950964	          0.05950508	          0.05950502	          0.05950480	          0.23511868	          0.06598374	          0.05431388	          0.05000952	          0.05001469	          0.05950369	          0.30060973	          0.54908458	          0.05880327	          0.05000128	          0.05000013	          0.18433576	          0.14629776	          0.08526777	          0.10871409	          0.21832992	          0.29769519	          0.27553616	          0.20714098	          0.18590743	          0.24690506	          0.05000001	          0.05000036	          0.14801387	          0.05000009	          0.05000004	          0.05000012	          0.05000015	          0.06178915	          0.05950489	          0.22239077	          0.05000008	          0.17042509	          0.05000038	          0.05000014	          0.05000029	          0.17541018	          0.08948578	          0.07898413	          0.05000020	          0.05000402	          0.10029798	          0.20994855	          0.19090022	          0.13416385	          0.09896073	          0.05000056	          0.05951112	          0.09698619	          0.05000067	          0.05783279	          0.09016522	          0.05950430	          0.05948976	          0.45749178	          0.14675148	          0.11713255	          0.07081527	          0.15502876	          0.15359002	          0.13274869	          0.05511711	          0.05712512	          0.05453150	          0.05000660	          0.05000072	          0.05000080	          0.42993103	          0.25930211	          0.15661005	          0.16624958	          0.55440405	          0.05000039	          0.05000000	          0.12188040	          0.08427680	
          0.02281065	         -2.92342804	         -2.41213835	          6.06378588	          0.03494619	          0.91681126	         -0.00124037	        -16.35029601	         -1.85757972	          6.40308984	         27.35031505	          4.27293741	         -1.48243630	        -13.16037108	        -11.63320586	         -4.31396300	          3.61200918	         10.66949228	         -6.18757624	          3.16203315	         -0.39549373	         14.87437882	          0.89263490	         -1.30153477	          0.82677975	         -2.27710730	          4.16001225	        -13.46309462	         16.97725922	         -7.99304136	        -13.45355171	          5.50551743	         37.23069304	         16.21518748	         86.51662706	         86.51662706	          0.30489883	          0.06174945	          0.05000008	          0.36888878	          0.12605967	          0.07073981	          0.05000157	          0.05000014	          0.05000012	          0.05000036	          0.07081805	          0.09444129	          0.05000446	          0.05000069	          0.05000096	          0.05000063	          0.22345698	          0.05544551	          0.05000042	          0.05000120	          0.05000062	          0.05000040	          0.25419344	          0.52084796	          0.05000007	          0.05000052	          0.05000036	          0.15489266	          0.12554992	          0.07164860	          0.12480205	          0.18345684	          0.25014538	          0.23152572	          0.17405510	          0.15621319	          0.20746786	          0.05354524	          0.06989421	          0.15596098	          0.05000086	          0.09374523	          0.05000067	          0.05843684	          0.05191979	          0.05000039	          0.29358923	          0.25244854	          0.30343487	          0.18445466	          0.19283864	          0.15758671	          0.14739254	          0.07519271	          0.06636831	          0.08427650	          0.05000330	          0.08427776	          0.17641423	          0.16040854	          0.11273457	          0.12279093	          0.05000058	          0.05000600	          0.08149898	          0.18344162	          0.14059653	          0.09735877	          0.05000010	          0.05000010	          0.38441825	          0.12331150	          0.13096443	          0.05950422	          0.13026670	          0.12905782	          0.11154533	          0.05000024	          0.05000060	          0.05000003	          0.05000005	          0.05000024	          0.05000030	          0.54853958	          0.33368066	          0.18224037	          0.47193825	          0.50206922	          0.22135448	          0.06921861	          0.10280739	          0.07081557	
          0.03421598	         -2.91690640	         -2.49175915	          6.25459679	          0.05253821	          0.91612438	         -0.00103621	        -16.12682713	         -2.15111935	          6.22528436	         26.53052435	          4.51485238	         -1.22293288	        -15.12796827	        -12.07891052	         -5.12561281	          3.04355561	         11.58924809	         -6.58591771	          1.69989889	         -0.44752073	         17.00581113	          0.91727819	         -1.08884867	          1.04089646	         -2.32236389	          3.75084083	        -13.47423767	         17.17230779	         -8.86704348	        -13.45584830	          5.43730822	         38.28829271	         15.91247822	         86.51662706	         86.51662706	          0.29575779	          0.05188646	          0.05000006	          0.30996768	          0.10592467	          0.05944086	          0.05000144	          0.05000016	          0.05000014	          0.05000011	          0.05950679	          0.12517276	          0.08856896	          0.05000233	          0.05000338	          0.05000239	          0.18776601	          0.06377447	          0.05000057	          0.05000175	          0.05000109	          0.05000073	          0.21359205	          0.48456441	          0.05000012	          0.05000039	          0.05000008	          0.13015220	          0.11635246	          0.11726806	          0.10486813	          0.15415391	          0.21019053	          0.19454491	          0.14625392	          0.13126190	          0.17432982	          0.10823334	          0.12155992	          0.13820687	          0.05000138	          0.15769373	          0.05000362	          0.08007018	          0.05000001	          0.05000003	          0.38245789	          0.34027337	          0.39064013	          0.20514148	          0.16203947	          0.22491694	          0.12385021	          0.08279786	          0.07280539	          0.07081537	          0.05000039	          0.07081645	          0.14823660	          0.16324715	          0.17833724	          0.15725335	          0.05000026	          0.05004473	          0.08866832	          0.23393985	          0.18039010	          0.14941023	          0.05000016	          0.05000013	          0.32301649	          0.10361549	          0.18964994	          0.05000006	          0.17698721	          0.18320381	          0.14658085	          0.05000003	          0.05000006	          0.05000001	          0.05000003	          0.05000018	          0.05000015	          0.61858049	          0.28038305	          0.15313177	          0.49486458	          0.57962389	          0.26241687	          0.08689798	          0.08638634	          0.05950445	
